# xmcd
#
# Track frame offsets:
#	150
#	14965
#	29955
#	43995
#	55482
#	68262
#	79790
#	94482
#	106800
#	121777
#
# Disc length: 1761 seconds
#
# Revision: 1
# Processed by: cddbd v1.4PL0 Copyright (c) Steve Scherf et al.
# Submitted via: audiograbber 1.81.03
#
DISCID=8c06df0a
DTITLE=George Jones - All The Best
DYEAR=1900
DGENRE=Country
TTITLE0=He Stopped Loving Her Today
TTITLE1=Wine Colored Roses
TTITLE2=The Grand Tour
TTITLE3=A Picture Of Me (Without You)
TTITLE4=Still Doin' Time
TTITLE5=Someday My Day Will Come
TTITLE6=If I Could Put Them All Together (I'd Have You)
TTITLE7=I Just Don't Give A Damn
TTITLE8=You Always Look Your Best (Here In My Arms)
TTITLE9=Old King Kong
EXTD=
EXTT0=
EXTT1=
EXTT2=
EXTT3=
EXTT4=
EXTT5=
EXTT6=
EXTT7=
EXTT8=
EXTT9=
PLAYORDER=
